<svg xmlns="http://www.w3.org/2000/svg" fill="#fff" viewBox="0 0 20 20"><path d="M10 13.5a3.5 3.5 0 1 1 0-7 3.5 3.5 0 0 1 0 7Zm7.43-2.53a7.77 7.77 0 0 0 0-1.97l2.11-1.63a.5.5 0 0 0 .12-.64l-2-3.46a.5.5 0 0 0-.6-.22l-2.5 1a7.25 7.25 0 0 0-1.69-.98L12.5.42A.5.5 0 0 0 12 0H8a.5.5 0 0 0-.5.42l-.37 2.65c-.63.25-1.17.59-1.69.98l-2.49-1a.5.5 0 0 0-.6.22l-2 3.46a.5.5 0 0 0 .11.64L2.57 9a7.77 7.77 0 0 0 0 1.97l-2.1 1.66a.5.5 0 0 0-.13.64l2 3.46c.12.22.4.3.61.22l2.5-1.01c.51.4 1.05.74 1.68.99l.37 2.65A.5.5 0 0 0 8 20h4a.5.5 0 0 0 .5-.42l.37-2.65a7.28 7.28 0 0 0 1.7-.99l2.48 1.01a.5.5 0 0 0 .61-.22l2-3.46a.5.5 0 0 0-.12-.64l-2.1-1.66Z"/></svg>
